<?xml version="1.0" encoding="UTF-8"?>
<svg xmlns="http://www.w3.org/2000/svg" version="1.1" viewBox="0 0 601.3 595">
    <defs>
        <style>
            .cls-1 {
                fill: #fff;
            }
        </style>
    </defs>
    <!-- Generator: Adobe Illustrator 28.7.3, SVG Export Plug-In . SVG Version: 1.2.0 Build 164)  -->
    <g>
        <g id="Layer_1">
            <g>
                <path class="cls-1"
                    d="M388.4,358.2c0,9.6-7.8,17.4-17.4,17.4s-17.4-7.8-17.4-17.4,7.8-17.4,17.4-17.4,17.4,7.8,17.4,17.4" />
                <path class="cls-1"
                    d="M247.6,358.2c0,9.6-7.8,17.4-17.4,17.4s-17.4-7.8-17.4-17.4,7.8-17.4,17.4-17.4,17.4,7.8,17.4,17.4" />
                <path class="cls-1"
                    d="M421.5,83.6c7.1-16.2,8.3-26.4,4-33.3-1.6-2.6-5.5-7-13.5-7s-18.8,2.7-49.6,25.2c-.7-.1-1.5-.2-2.2-.4,12.3-42,9.2-54.7,4.2-61.5-3.1-4.3-7.8-6.6-13.2-6.6-15.1,0-40.4,21.6-75.2,64.1C120.9,74.2,0,179.3,0,304.8s100.5,211.3,234.5,235.6c20.2,29.6,46.7,54.5,70.8,54.5s52.4-27.4,71.4-56.7c129-27.2,224.5-121.4,224.5-233.5s-70.2-182.7-179.8-221.2h0ZM367.9,517c-20,34.9-45.7,59.3-62.6,59.3s-50.9-32.8-71.1-73.1c-15-30.1-19.5-56.6-11.3-67.5,10.8-14.3,46.2-24.3,86.2-24.3s69.7,9.4,77.9,23.4c8.3,14.2.4,48-19.2,82.2h0ZM389.7,516.1c15.9-31.1,26.6-68.6,13.6-90.8-17.7-30.3-76.5-32.7-94.1-32.7-35.7,0-83.6,8.3-101.2,31.8-18.5,24.5.5,69.1,9.5,87.2,1.1,2.3,2.4,4.6,3.6,6.9-116.8-27.2-202.4-112.6-202.4-213.6S134,90.5,281.2,82.6l4.2-.2,2.6-3.2c33-40.8,54.4-57.9,61.8-60.1.8,3.8,1.3,16.4-10.6,53.9l-3.4,10.7,11.1,1.4c5.5.7,10.9,1.6,16.2,2.6l4,.7,3.3-2.4c22.4-16.7,33.7-21.7,38.6-23.2-.7,3.5-2.8,10.2-8.8,22.3l-5,9.8,10.5,3.3c107.4,34.2,176.9,115.3,176.9,206.8,0,98.3-81,181.7-192.9,211.3h0Z" />
                <path class="cls-1"
                    d="M281.4,446.5c-1.7-4.1-6.4-6.1-10.6-4.4-4.1,1.7-6.1,6.5-4.4,10.6l5.4,13.1c1.3,3.1,4.3,5,7.5,5s2.1-.2,3.1-.6c4.1-1.7,6.1-6.5,4.4-10.6l-5.4-13.1Z" />
                <path class="cls-1"
                    d="M336,442.1c-4.1-1.7-8.9.2-10.6,4.4l-5.4,13.1c-1.7,4.1.2,8.9,4.4,10.6,1,.4,2.1.6,3.1.6,3.2,0,6.2-1.9,7.5-5l5.4-13.1c1.7-4.2-.3-8.9-4.4-10.6h0Z" />
            </g>
        </g>
    </g>
</svg>